<svg width="20" height="20" viewBox="0 0 20 20" fill="none" xmlns="http://www.w3.org/2000/svg">
<path d="M16.6667 10.4165V5.6665C16.6667 4.26637 16.6667 3.56631 16.3942 3.03153C16.1545 2.56112 15.7721 2.17867 15.3016 1.93899C14.7669 1.6665 14.0668 1.6665 12.6667 1.6665H7.33334C5.9332 1.6665 5.23314 1.6665 4.69836 1.93899C4.22795 2.17867 3.8455 2.56112 3.60582 3.03153C3.33334 3.56631 3.33334 4.26637 3.33334 5.6665V14.3332C3.33334 15.7333 3.33334 16.4334 3.60582 16.9681C3.8455 17.4386 4.22795 17.821 4.69836 18.0607C5.23314 18.3332 5.9332 18.3332 7.33334 18.3332H10M11.6667 9.1665H6.66667M8.33334 12.4998H6.66667M13.3333 5.83317H6.66667M12.0833 15.8332L13.75 17.4998L17.5 13.7498" stroke="black" stroke-opacity="0.5" stroke-width="2" stroke-linecap="round" stroke-linejoin="round"/>
</svg>
