<svg width="16" height="17" viewBox="0 0 16 17" fill="none" xmlns="http://www.w3.org/2000/svg">
<path d="M6 2.5V14.5M10 2.5V14.5M5.2 2.5H10.8C11.9201 2.5 12.4802 2.5 12.908 2.71799C13.2843 2.90973 13.5903 3.21569 13.782 3.59202C14 4.01984 14 4.5799 14 5.7V11.3C14 12.4201 14 12.9802 13.782 13.408C13.5903 13.7843 13.2843 14.0903 12.908 14.282C12.4802 14.5 11.9201 14.5 10.8 14.5H5.2C4.07989 14.5 3.51984 14.5 3.09202 14.282C2.71569 14.0903 2.40973 13.7843 2.21799 13.408C2 12.9802 2 12.4201 2 11.3V5.7C2 4.57989 2 4.01984 2.21799 3.59202C2.40973 3.21569 2.71569 2.90973 3.09202 2.71799C3.51984 2.5 4.0799 2.5 5.2 2.5Z" stroke="#7F7F7F" stroke-width="1.5" stroke-linecap="round" stroke-linejoin="round"/>
</svg>
