<svg width="16" height="16" viewBox="0 0 16 16" fill="none" xmlns="http://www.w3.org/2000/svg">
<g clip-path="url(#clip0_661_327)">
<rect x="1.54883" y="7.75977" width="10.5012" height="4.27484" fill="#2C5DF7"/>
<path d="M6.56871 9.20316C6.56871 8.91962 6.37198 8.75049 6.02451 8.75049C5.88279 8.75049 5.7866 8.76415 5.73633 8.7779V9.68798C5.7959 9.70164 5.86903 9.70619 5.96959 9.70619C6.34001 9.70619 6.56871 9.51866 6.56871 9.20316Z" fill="#2C5DF7"/>
<path d="M14.0092 6.49051V4.03768C14.0092 4.03592 14.0087 4.03424 14.0085 4.03248C14.0083 4.01538 14.0068 3.99847 14.0036 3.98183C14.0029 3.97867 14.0018 3.97598 14.0011 3.973C13.998 3.95953 13.9939 3.94652 13.9889 3.93369C13.9869 3.9284 13.9846 3.92338 13.9823 3.91836C13.9773 3.90749 13.9717 3.89708 13.9652 3.88695C13.9626 3.88277 13.9603 3.8784 13.9574 3.8744C13.9482 3.86121 13.9382 3.84857 13.9266 3.83686L10.2182 0.0849394C10.2181 0.0846606 10.2179 0.0844748 10.2175 0.0842889C10.2163 0.0829879 10.2149 0.0821513 10.2136 0.0808502C10.2028 0.070349 10.1914 0.0609629 10.1792 0.0525061C10.1748 0.0494394 10.1703 0.0467445 10.1657 0.0439565C10.156 0.037823 10.1458 0.03234 10.1353 0.0273217C10.1301 0.0250914 10.1251 0.0225824 10.1197 0.0205379C10.1059 0.014962 10.0917 0.0105941 10.0772 0.00724857C10.075 0.00678391 10.0728 0.00604067 10.0706 0.00557601C10.0544 0.00241634 10.0378 0.00102224 10.0213 0.000650517C10.0192 0.000557586 10.0171 0 10.015 0H1.84978C1.69189 0 1.56401 0.127967 1.56401 0.285857V6.49061H0.666016V12.8335H1.56401V15.7142C1.56401 15.872 1.69189 16 1.84978 16H13.7234C13.8812 16 14.0092 15.872 14.0092 15.7142V12.8335H14.877V6.49061L14.0092 6.49051ZM10.3009 0.981541L13.0389 3.75183H10.3009V0.981541ZM13.4376 15.4283H2.13563V12.8334H13.4376V15.4283ZM2.63059 11.3067L2.70846 10.7442C2.80446 10.7762 2.92787 10.7991 3.06513 10.7991C3.35768 10.7991 3.54066 10.6664 3.54066 10.1862V8.24729H4.23579V10.1954C4.23579 11.0734 3.81509 11.3798 3.13818 11.3798C2.97815 11.3799 2.76775 11.3525 2.63059 11.3067ZM5.04532 11.3296V8.28846C5.26017 8.25184 5.56211 8.22452 5.98736 8.22452C6.41717 8.22452 6.72356 8.30686 6.92941 8.47144C7.12605 8.62691 7.25866 8.88303 7.25866 9.18487C7.25866 9.48672 7.15811 9.74274 6.97513 9.91652C6.73732 10.1406 6.3852 10.2412 5.97361 10.2412C5.88226 10.2412 5.79992 10.2367 5.7358 10.2276V11.3296H5.04532ZM9.49041 10.7992C9.65053 10.7992 9.77859 10.7809 9.83342 10.7535V10.1087H9.3578V9.5645H10.5057V11.188C10.2908 11.2611 9.88379 11.3618 9.47684 11.3618C8.91433 11.3618 8.5072 11.2201 8.22375 10.9456C7.94022 10.6803 7.78475 10.2778 7.7893 9.82508C7.79395 8.80079 8.53926 8.21541 9.54998 8.21541C9.94782 8.21541 10.2542 8.2932 10.4051 8.36633L10.2588 8.92429C10.0896 8.85106 9.87924 8.79159 9.54078 8.79159C8.95996 8.79159 8.52095 9.12084 8.52095 9.78856C8.52095 10.4241 8.91888 10.7992 9.49041 10.7992ZM13.4376 6.49051H2.13563V0.571621H9.72915V4.03768C9.72915 4.19557 9.85702 4.32354 10.0149 4.32354H13.4375L13.4376 6.49051Z" fill="#2C5DF7"/>
<path d="M5.48409 9.21808H4.52273C4.51591 9.13854 4.49773 9.06638 4.46818 9.00161C4.43977 8.93683 4.4 8.88115 4.34886 8.83456C4.29886 8.78683 4.23807 8.75047 4.16648 8.72547C4.09489 8.69933 4.01364 8.68627 3.92273 8.68627C3.76364 8.68627 3.62898 8.7249 3.51875 8.80217C3.40966 8.87945 3.3267 8.99024 3.26989 9.13456C3.2142 9.27888 3.18636 9.45217 3.18636 9.65445C3.18636 9.86808 3.21477 10.0471 3.27159 10.1914C3.32955 10.3346 3.41307 10.4425 3.52216 10.5152C3.63125 10.5868 3.7625 10.6226 3.91591 10.6226C4.00341 10.6226 4.08182 10.6118 4.15114 10.5902C4.22045 10.5675 4.28068 10.5351 4.33182 10.4931C4.38295 10.451 4.42443 10.4005 4.45625 10.3414C4.4892 10.2812 4.51136 10.2135 4.52273 10.1385L5.48409 10.1454C5.47273 10.2931 5.43125 10.4437 5.35966 10.5971C5.28807 10.7493 5.18636 10.8902 5.05455 11.0198C4.92386 11.1482 4.76193 11.2516 4.56875 11.33C4.37557 11.4084 4.15114 11.4476 3.89545 11.4476C3.575 11.4476 3.2875 11.3789 3.03295 11.2414C2.77955 11.1039 2.57898 10.9016 2.43125 10.6346C2.28466 10.3675 2.21136 10.0408 2.21136 9.65445C2.21136 9.26581 2.28636 8.93854 2.43636 8.67263C2.58636 8.40558 2.78864 8.20388 3.04318 8.06752C3.29773 7.93002 3.58182 7.86127 3.89545 7.86127C4.11591 7.86127 4.31875 7.89138 4.50398 7.95161C4.6892 8.01183 4.8517 8.0999 4.99148 8.21581C5.13125 8.33058 5.24375 8.47206 5.32898 8.64024C5.4142 8.80842 5.46591 9.00104 5.48409 9.21808ZM8.17988 8.9999C8.17079 8.88627 8.12818 8.79763 8.05204 8.73399C7.97704 8.67036 7.86284 8.63854 7.70943 8.63854C7.6117 8.63854 7.53159 8.65047 7.46909 8.67433C7.40772 8.69706 7.36227 8.72831 7.33272 8.76808C7.30318 8.80786 7.28784 8.85331 7.2867 8.90445C7.28443 8.94649 7.29181 8.98456 7.30886 9.01865C7.32704 9.05161 7.35545 9.08172 7.39409 9.10899C7.43272 9.13513 7.48215 9.15899 7.54238 9.18058C7.60261 9.20217 7.6742 9.22149 7.75715 9.23854L8.04352 9.2999C8.2367 9.34081 8.40204 9.39479 8.53954 9.46183C8.67704 9.52888 8.78954 9.60786 8.87704 9.69877C8.96454 9.78854 9.02874 9.88967 9.06965 10.0022C9.1117 10.1147 9.13329 10.2374 9.13443 10.3704C9.13329 10.5999 9.0759 10.7942 8.96227 10.9533C8.84863 11.1124 8.68613 11.2334 8.47477 11.3164C8.26454 11.3993 8.0117 11.4408 7.71624 11.4408C7.41284 11.4408 7.14806 11.3959 6.92193 11.3062C6.69693 11.2164 6.52193 11.0783 6.39693 10.8919C6.27306 10.7044 6.21056 10.4647 6.20943 10.1726H7.10943C7.11511 10.2794 7.14181 10.3692 7.18954 10.4419C7.23727 10.5147 7.30431 10.5698 7.39068 10.6073C7.47818 10.6448 7.58215 10.6635 7.70261 10.6635C7.80374 10.6635 7.8884 10.651 7.95659 10.626C8.02477 10.601 8.07647 10.5664 8.1117 10.5221C8.14693 10.4777 8.16511 10.4272 8.16624 10.3704C8.16511 10.3169 8.14749 10.2704 8.1134 10.2306C8.08045 10.1897 8.0259 10.1533 7.94977 10.1215C7.87363 10.0885 7.77079 10.0579 7.64124 10.0294L7.29352 9.95445C6.98443 9.8874 6.74068 9.77547 6.56227 9.61865C6.38499 9.4607 6.29693 9.24536 6.29806 8.97263C6.29693 8.75104 6.35602 8.55729 6.47534 8.39138C6.59579 8.22433 6.76227 8.09422 6.97477 8.00104C7.1884 7.90786 7.43329 7.86127 7.70943 7.86127C7.99124 7.86127 8.23499 7.90842 8.44068 8.00274C8.64636 8.09706 8.80488 8.23002 8.91624 8.40161C9.02874 8.57206 9.08556 8.77149 9.0867 8.9999H8.17988ZM10.8335 7.90899L11.5494 10.3704H11.5767L12.2926 7.90899H13.363L12.2108 11.3999H10.9153L9.76303 7.90899H10.8335Z" fill="white"/>
</g>
<defs>
<clipPath id="clip0_661_327">
<rect width="16" height="16" fill="white"/>
</clipPath>
</defs>
</svg>
