<svg width="37" height="46" viewBox="0 0 37 46" fill="none" xmlns="http://www.w3.org/2000/svg">
<path d="M14.9339 4.14341L15.5557 2.56309C15.7459 2.07979 16.2634 1.81284 16.7595 1.9421L22.4994 3.43763C22.9956 3.56689 23.3349 4.05712 23.2888 4.57793L23.1381 6.28102L24.953 6.75389L25.1282 4.77413C25.1907 4.06798 25.0031 3.35831 24.5999 2.7759C24.1967 2.19349 23.6042 1.77622 22.9316 1.60096L17.1916 0.10542C16.5189 -0.0698417 15.8099 0.00831781 15.195 0.325496C14.5802 0.642674 14.0996 1.17821 13.8418 1.8335L13.119 3.67057L14.9339 4.14341Z" fill="#CB0000"/>
<path d="M1.89071 5.23618L34.9205 13.842C35.096 13.8877 35.2713 13.7744 35.3056 13.5929L36.0242 9.79143C36.0564 9.62123 35.9521 9.45337 35.7874 9.41046L3.08876 0.890955C2.92408 0.848046 2.75735 0.945278 2.71037 1.11162L1.66053 4.82685C1.6104 5.00415 1.71519 5.19045 1.89071 5.23618Z" fill="#CB0000"/>
<path d="M31.6072 45.4998H5.72153L1.54102 10.3564H35.7877L31.6072 45.4998Z" fill="#CB0000"/>
<path d="M18.6664 14.1738C17.8421 14.1738 17.1738 14.8256 17.1738 15.6297V40.2137C17.1738 41.0177 17.8421 41.6695 18.6664 41.6695C19.4907 41.6695 20.1589 41.0177 20.1589 40.2137V15.6297C20.1589 14.8256 19.4907 14.1738 18.6664 14.1738Z" fill="white"/>
<path d="M10.8206 15.6003C10.7442 14.7997 10.0169 14.2111 9.19608 14.2857C8.37533 14.3602 7.77192 15.0696 7.84832 15.8702L10.1847 40.3484C10.2611 41.1489 10.9884 41.7375 11.8092 41.663C12.63 41.5885 13.2334 40.8791 13.157 40.0785L10.8206 15.6003Z" fill="white"/>
<path d="M28.1354 14.2847C27.3146 14.2102 26.5873 14.7987 26.5109 15.5993L24.1745 40.0775C24.0981 40.8781 24.7015 41.5875 25.5223 41.662C26.343 41.7365 27.0703 41.148 27.1467 40.3474L29.4832 15.8692C29.5596 15.0686 28.9562 14.3592 28.1354 14.2847Z" fill="white"/>
</svg>
