<svg width="16" height="17" viewBox="0 0 16 17" fill="none" xmlns="http://www.w3.org/2000/svg">
<path d="M10.7334 9.3667L9.76669 8.40003C9.86669 7.87781 9.71669 7.38892 9.31669 6.93337C8.91669 6.47781 8.40002 6.30003 7.76669 6.40003L6.80002 5.43337C6.98891 5.34448 7.18058 5.27781 7.37502 5.23337C7.56947 5.18892 7.7778 5.1667 8.00002 5.1667C8.83335 5.1667 9.54169 5.45837 10.125 6.0417C10.7084 6.62503 11 7.33337 11 8.1667C11 8.38892 10.9778 8.59726 10.9334 8.7917C10.8889 8.98614 10.8222 9.17781 10.7334 9.3667ZM12.8667 11.4667L11.9 10.5334C12.3222 10.2111 12.6972 9.85837 13.025 9.47503C13.3528 9.0917 13.6334 8.65559 13.8667 8.1667C13.3111 7.04448 12.5139 6.15281 11.475 5.4917C10.4361 4.83059 9.2778 4.50003 8.00002 4.50003C7.6778 4.50003 7.36113 4.52225 7.05002 4.5667C6.73891 4.61114 6.43335 4.67781 6.13335 4.7667L5.10002 3.73337C5.55558 3.54448 6.02224 3.40281 6.50002 3.30837C6.9778 3.21392 7.4778 3.1667 8.00002 3.1667C9.6778 3.1667 11.1722 3.63059 12.4834 4.55837C13.7945 5.48614 14.7445 6.68892 15.3334 8.1667C15.0778 8.82226 14.7417 9.43059 14.325 9.9917C13.9084 10.5528 13.4222 11.0445 12.8667 11.4667ZM13.2 15.5667L10.4 12.8C10.0111 12.9223 9.61947 13.0139 9.22502 13.075C8.83058 13.1361 8.42224 13.1667 8.00002 13.1667C6.32224 13.1667 4.8278 12.7028 3.51669 11.775C2.20558 10.8473 1.25558 9.64448 0.666687 8.1667C0.90002 7.57781 1.19446 7.03059 1.55002 6.52503C1.90558 6.01948 2.31113 5.5667 2.76669 5.1667L0.933354 3.30003L1.86669 2.3667L14.1334 14.6334L13.2 15.5667ZM3.70002 6.10003C3.3778 6.38892 3.08335 6.70559 2.81669 7.05003C2.55002 7.39448 2.32224 7.7667 2.13335 8.1667C2.68891 9.28892 3.48613 10.1806 4.52502 10.8417C5.56391 11.5028 6.72224 11.8334 8.00002 11.8334C8.22224 11.8334 8.43891 11.8195 8.65002 11.7917C8.86113 11.7639 9.0778 11.7334 9.30002 11.7L8.70002 11.0667C8.5778 11.1 8.46113 11.125 8.35002 11.1417C8.23891 11.1584 8.12224 11.1667 8.00002 11.1667C7.16669 11.1667 6.45835 10.875 5.87502 10.2917C5.29169 9.70837 5.00002 9.00003 5.00002 8.1667C5.00002 8.04448 5.00835 7.92781 5.02502 7.8167C5.04169 7.70559 5.06669 7.58892 5.10002 7.4667L3.70002 6.10003Z" fill="#808080"/>
</svg>
