<svg width="17" height="17" viewBox="0 0 17 17" fill="none" xmlns="http://www.w3.org/2000/svg">
<path d="M8.49935 11.1665C9.33268 11.1665 10.041 10.8748 10.6243 10.2915C11.2077 9.70817 11.4993 8.99984 11.4993 8.1665C11.4993 7.33317 11.2077 6.62484 10.6243 6.0415C10.041 5.45817 9.33268 5.1665 8.49935 5.1665C7.66602 5.1665 6.95768 5.45817 6.37435 6.0415C5.79102 6.62484 5.49935 7.33317 5.49935 8.1665C5.49935 8.99984 5.79102 9.70817 6.37435 10.2915C6.95768 10.8748 7.66602 11.1665 8.49935 11.1665ZM8.49935 9.9665C7.99935 9.9665 7.57435 9.7915 7.22435 9.4415C6.87435 9.0915 6.69935 8.6665 6.69935 8.1665C6.69935 7.6665 6.87435 7.2415 7.22435 6.8915C7.57435 6.5415 7.99935 6.3665 8.49935 6.3665C8.99935 6.3665 9.42435 6.5415 9.77435 6.8915C10.1243 7.2415 10.2993 7.6665 10.2993 8.1665C10.2993 8.6665 10.1243 9.0915 9.77435 9.4415C9.42435 9.7915 8.99935 9.9665 8.49935 9.9665ZM8.49935 13.1665C6.87713 13.1665 5.39935 12.7137 4.06602 11.8082C2.73268 10.9026 1.76602 9.68873 1.16602 8.1665C1.76602 6.64428 2.73268 5.43039 4.06602 4.52484C5.39935 3.61928 6.87713 3.1665 8.49935 3.1665C10.1216 3.1665 11.5993 3.61928 12.9327 4.52484C14.266 5.43039 15.2327 6.64428 15.8327 8.1665C15.2327 9.68873 14.266 10.9026 12.9327 11.8082C11.5993 12.7137 10.1216 13.1665 8.49935 13.1665ZM8.49935 11.8332C9.7549 11.8332 10.9077 11.5026 11.9577 10.8415C13.0077 10.1804 13.8105 9.28873 14.366 8.1665C13.8105 7.04428 13.0077 6.15262 11.9577 5.4915C10.9077 4.83039 9.7549 4.49984 8.49935 4.49984C7.24379 4.49984 6.09102 4.83039 5.04102 5.4915C3.99102 6.15262 3.18824 7.04428 2.63268 8.1665C3.18824 9.28873 3.99102 10.1804 5.04102 10.8415C6.09102 11.5026 7.24379 11.8332 8.49935 11.8332Z" fill="#808080"/>
</svg>
