<svg width="16" height="16" viewBox="0 0 16 16" fill="none" xmlns="http://www.w3.org/2000/svg">
<path d="M5.6002 12.0001H10.4002V10.8001H5.6002V12.0001ZM5.6002 9.6001H10.4002V8.4001H5.6002V9.6001ZM4.39553 14.4001C4.06531 14.4001 3.78353 14.2826 3.5502 14.0476C3.31686 13.8126 3.2002 13.5301 3.2002 13.2001V2.8001C3.2002 2.4701 3.3177 2.1876 3.5527 1.9526C3.7877 1.7176 4.0702 1.6001 4.4002 1.6001H9.6002L12.8002 4.8001V13.2001C12.8002 13.5301 12.6826 13.8126 12.4475 14.0476C12.2124 14.2826 11.9298 14.4001 11.5995 14.4001H4.39553ZM8.8002 5.6001V2.8001H4.4002V13.2001H11.6002V5.6001H8.8002Z" fill="#2C5DF7"/>
</svg>
