<svg width="16" height="17" viewBox="0 0 16 17" fill="none" xmlns="http://www.w3.org/2000/svg">
<path d="M1.33337 3.56667C1.33337 3.1933 1.33337 3.00661 1.40604 2.86401C1.46995 2.73856 1.57194 2.63658 1.69738 2.57266C1.83999 2.5 2.02667 2.5 2.40004 2.5H13.6C13.9734 2.5 14.1601 2.5 14.3027 2.57266C14.4281 2.63658 14.5301 2.73856 14.594 2.86401C14.6667 3.00661 14.6667 3.1933 14.6667 3.56667V4.01293C14.6667 4.19213 14.6667 4.28173 14.6448 4.36504C14.6254 4.43887 14.5935 4.50882 14.5504 4.57184C14.5018 4.64295 14.4341 4.70164 14.2986 4.819L10.0348 8.51434C9.89936 8.6317 9.83166 8.69038 9.78304 8.76149C9.73995 8.82451 9.70801 8.89446 9.68861 8.96829C9.66671 9.05161 9.66671 9.14121 9.66671 9.3204V12.8056C9.66671 12.936 9.66671 13.0011 9.64568 13.0575C9.6271 13.1073 9.59688 13.1519 9.55754 13.1877C9.51302 13.2281 9.4525 13.2524 9.33145 13.3008L7.06478 14.2074C6.81975 14.3054 6.69724 14.3545 6.59889 14.334C6.51288 14.3161 6.43741 14.265 6.38888 14.1918C6.33337 14.1081 6.33337 13.9762 6.33337 13.7122V9.3204C6.33337 9.14121 6.33337 9.05161 6.31148 8.96829C6.29207 8.89446 6.26013 8.82451 6.21705 8.76149C6.16843 8.69038 6.10072 8.6317 5.9653 8.51434L1.70145 4.819C1.56603 4.70164 1.49832 4.64295 1.4497 4.57184C1.40662 4.50882 1.37468 4.43887 1.35527 4.36504C1.33337 4.28173 1.33337 4.19213 1.33337 4.01293V3.56667Z" stroke="#7F7F7F" stroke-width="1.5" stroke-linecap="round" stroke-linejoin="round"/>
</svg>
