<svg width="20" height="20" viewBox="0 0 20 20" fill="none" xmlns="http://www.w3.org/2000/svg">
<path d="M13.3336 7.49984V4.99984C13.3336 3.15889 11.8413 1.6665 10.0003 1.6665C8.15936 1.6665 6.66697 3.15889 6.66697 4.99984V7.49984M2.99364 8.62648L2.49364 13.9598C2.35148 15.4762 2.28039 16.2344 2.53201 16.8201C2.75305 17.3345 3.1404 17.7599 3.63199 18.028C4.19158 18.3332 4.95311 18.3332 6.47618 18.3332H13.5244C15.0475 18.3332 15.809 18.3332 16.3686 18.028C16.8602 17.7599 17.2476 17.3345 17.4686 16.8201C17.7202 16.2344 17.6491 15.4762 17.507 13.9598L17.007 8.62648C16.8869 7.34596 16.8269 6.7057 16.5389 6.22164C16.2853 5.79532 15.9106 5.4541 15.4625 5.24137C14.9536 4.99984 14.3106 4.99984 13.0244 4.99984L6.97618 4.99984C5.69005 4.99984 5.04698 4.99984 4.53815 5.24137C4.09003 5.4541 3.71531 5.79532 3.46169 6.22164C3.17371 6.7057 3.11369 7.34596 2.99364 8.62648Z" stroke="black" stroke-opacity="0.5" stroke-width="2" stroke-linecap="round" stroke-linejoin="round"/>
</svg>
