<svg width="16" height="17" viewBox="0 0 16 17" fill="none" xmlns="http://www.w3.org/2000/svg">
<path d="M7.00065 13.7663V3.23301C7.00065 2.23301 6.57398 1.83301 5.51398 1.83301H2.82065C1.76065 1.83301 1.33398 2.23301 1.33398 3.23301V13.7663C1.33398 14.7663 1.76065 15.1663 2.82065 15.1663H5.51398C6.57398 15.1663 7.00065 14.7663 7.00065 13.7663Z" stroke="black" stroke-opacity="0.5" stroke-width="1.5" stroke-linecap="round" stroke-linejoin="round"/>
<path d="M14.6667 13.7663V3.23301C14.6667 2.23301 14.24 1.83301 13.18 1.83301H10.4867C9.42667 1.83301 9 2.23301 9 3.23301V13.7663C9 14.7663 9.42667 15.1663 10.4867 15.1663H13.18C14.24 15.1663 14.6667 14.7663 14.6667 13.7663Z" stroke="black" stroke-opacity="0.5" stroke-width="1.5" stroke-linecap="round" stroke-linejoin="round"/>
</svg>
